<mxfile host="Electron" agent="Mozilla/5.0 (Windows NT 10.0; Win64; x64) AppleWebKit/537.36 (KHTML, like Gecko) draw.io/26.2.2 Chrome/134.0.6998.178 Electron/35.1.2 Safari/537.36" version="26.2.2">
  <diagram name="Pagina-1" id="G2zQ10DwhTWS23658HcZ">
    <mxGraphModel dx="476" dy="280" grid="0" gridSize="10" guides="1" tooltips="1" connect="1" arrows="1" fold="1" page="1" pageScale="1" pageWidth="827" pageHeight="1169" math="1" shadow="0">
      <root>
        <mxCell id="0" />
        <mxCell id="1" parent="0" />
        <mxCell id="tF5wVJskWd052KUqNV0I-23" value="\(q_2(t_2)\)" style="text;html=1;align=center;verticalAlign=middle;resizable=0;points=[];autosize=1;strokeColor=none;fillColor=none;" parent="1" vertex="1">
          <mxGeometry x="188" y="193" width="77" height="26" as="geometry" />
        </mxCell>
        <mxCell id="tF5wVJskWd052KUqNV0I-24" value="\(q_2(t_1)\)" style="text;html=1;align=center;verticalAlign=middle;resizable=0;points=[];autosize=1;strokeColor=none;fillColor=none;" parent="1" vertex="1">
          <mxGeometry x="188" y="233" width="77" height="26" as="geometry" />
        </mxCell>
        <mxCell id="tF5wVJskWd052KUqNV0I-18" value="" style="endArrow=none;html=1;rounded=0;exitX=1;exitY=0.5;exitDx=0;exitDy=0;entryX=0;entryY=0.5;entryDx=0;entryDy=0;dashed=1;strokeColor=#666666;" parent="1" target="tF5wVJskWd052KUqNV0I-16" edge="1">
          <mxGeometry width="50" height="50" relative="1" as="geometry">
            <mxPoint x="255" y="206" as="sourcePoint" />
            <mxPoint x="324" y="162" as="targetPoint" />
          </mxGeometry>
        </mxCell>
        <mxCell id="tF5wVJskWd052KUqNV0I-19" value="" style="endArrow=none;html=1;rounded=0;exitX=0.5;exitY=0;exitDx=0;exitDy=0;entryX=0.5;entryY=1;entryDx=0;entryDy=0;dashed=1;strokeColor=#666666;" parent="1" source="tF5wVJskWd052KUqNV0I-10" target="tF5wVJskWd052KUqNV0I-16" edge="1">
          <mxGeometry width="50" height="50" relative="1" as="geometry">
            <mxPoint x="344" y="248" as="sourcePoint" />
            <mxPoint x="394" y="198" as="targetPoint" />
          </mxGeometry>
        </mxCell>
        <mxCell id="tF5wVJskWd052KUqNV0I-12" value="" style="endArrow=none;html=1;rounded=0;dashed=1;strokeColor=#666666;" parent="1" edge="1">
          <mxGeometry width="50" height="50" relative="1" as="geometry">
            <mxPoint x="255" y="245.9" as="sourcePoint" />
            <mxPoint x="290" y="245.9" as="targetPoint" />
          </mxGeometry>
        </mxCell>
        <mxCell id="tF5wVJskWd052KUqNV0I-1" value="" style="endArrow=classic;html=1;rounded=0;" parent="1" edge="1">
          <mxGeometry width="50" height="50" relative="1" as="geometry">
            <mxPoint x="252" y="284" as="sourcePoint" />
            <mxPoint x="252" y="152" as="targetPoint" />
          </mxGeometry>
        </mxCell>
        <mxCell id="tF5wVJskWd052KUqNV0I-2" value="" style="endArrow=classic;html=1;rounded=0;" parent="1" edge="1">
          <mxGeometry width="50" height="50" relative="1" as="geometry">
            <mxPoint x="252" y="283.9" as="sourcePoint" />
            <mxPoint x="411" y="283.9" as="targetPoint" />
          </mxGeometry>
        </mxCell>
        <mxCell id="tF5wVJskWd052KUqNV0I-9" value="" style="ellipse;whiteSpace=wrap;html=1;aspect=fixed;strokeColor=none;fillColor=#3399FF;" parent="1" vertex="1">
          <mxGeometry x="287" y="281" width="6" height="6" as="geometry" />
        </mxCell>
        <mxCell id="tF5wVJskWd052KUqNV0I-10" value="" style="ellipse;whiteSpace=wrap;html=1;aspect=fixed;strokeColor=none;fillColor=#3399FF;" parent="1" vertex="1">
          <mxGeometry x="330" y="281" width="6" height="6" as="geometry" />
        </mxCell>
        <mxCell id="tF5wVJskWd052KUqNV0I-13" value="" style="endArrow=none;html=1;rounded=0;dashed=1;" parent="1" source="tF5wVJskWd052KUqNV0I-14" edge="1">
          <mxGeometry width="50" height="50" relative="1" as="geometry">
            <mxPoint x="290" y="280.81" as="sourcePoint" />
            <mxPoint x="290" y="246" as="targetPoint" />
          </mxGeometry>
        </mxCell>
        <mxCell id="tF5wVJskWd052KUqNV0I-15" value="" style="endArrow=none;html=1;rounded=0;dashed=1;strokeColor=#666666;" parent="1" target="tF5wVJskWd052KUqNV0I-14" edge="1">
          <mxGeometry width="50" height="50" relative="1" as="geometry">
            <mxPoint x="290" y="280.81" as="sourcePoint" />
            <mxPoint x="290" y="246" as="targetPoint" />
          </mxGeometry>
        </mxCell>
        <mxCell id="tF5wVJskWd052KUqNV0I-20" value="" style="endArrow=none;html=1;rounded=0;exitX=1;exitY=0;exitDx=0;exitDy=0;entryX=0;entryY=1;entryDx=0;entryDy=0;edgeStyle=orthogonalEdgeStyle;curved=1;strokeColor=#0066CC;" parent="1" source="tF5wVJskWd052KUqNV0I-14" target="tF5wVJskWd052KUqNV0I-16" edge="1">
          <mxGeometry width="50" height="50" relative="1" as="geometry">
            <mxPoint x="330" y="239" as="sourcePoint" />
            <mxPoint x="380" y="189" as="targetPoint" />
            <Array as="points">
              <mxPoint x="292" y="231" />
              <mxPoint x="324" y="231" />
              <mxPoint x="324" y="208" />
            </Array>
          </mxGeometry>
        </mxCell>
        <mxCell id="tF5wVJskWd052KUqNV0I-21" value="" style="endArrow=none;html=1;rounded=0;exitX=1;exitY=0;exitDx=0;exitDy=0;entryX=0;entryY=0.5;entryDx=0;entryDy=0;edgeStyle=orthogonalEdgeStyle;curved=1;dashed=1;strokeColor=#66B2FF;" parent="1" source="tF5wVJskWd052KUqNV0I-14" target="tF5wVJskWd052KUqNV0I-16" edge="1">
          <mxGeometry width="50" height="50" relative="1" as="geometry">
            <mxPoint x="301" y="249" as="sourcePoint" />
            <mxPoint x="340" y="213" as="targetPoint" />
            <Array as="points">
              <mxPoint x="291" y="244" />
              <mxPoint x="291" y="225" />
              <mxPoint x="315" y="225" />
              <mxPoint x="315" y="207" />
              <mxPoint x="331" y="207" />
              <mxPoint x="331" y="206" />
            </Array>
          </mxGeometry>
        </mxCell>
        <mxCell id="tF5wVJskWd052KUqNV0I-22" value="" style="endArrow=none;html=1;rounded=0;exitX=1;exitY=0;exitDx=0;exitDy=0;entryX=0;entryY=1;entryDx=0;entryDy=0;edgeStyle=orthogonalEdgeStyle;curved=1;dashed=1;strokeColor=#66B2FF;" parent="1" source="tF5wVJskWd052KUqNV0I-14" target="tF5wVJskWd052KUqNV0I-16" edge="1">
          <mxGeometry width="50" height="50" relative="1" as="geometry">
            <mxPoint x="313" y="259" as="sourcePoint" />
            <mxPoint x="363" y="209" as="targetPoint" />
            <Array as="points">
              <mxPoint x="292" y="236" />
              <mxPoint x="327" y="236" />
              <mxPoint x="327" y="208" />
            </Array>
          </mxGeometry>
        </mxCell>
        <mxCell id="tF5wVJskWd052KUqNV0I-14" value="" style="ellipse;whiteSpace=wrap;html=1;aspect=fixed;strokeColor=none;fillColor=#3399FF;" parent="1" vertex="1">
          <mxGeometry x="287" y="243" width="6" height="6" as="geometry" />
        </mxCell>
        <mxCell id="tF5wVJskWd052KUqNV0I-16" value="" style="ellipse;whiteSpace=wrap;html=1;aspect=fixed;strokeColor=none;fillColor=#3399FF;" parent="1" vertex="1">
          <mxGeometry x="330" y="203" width="6" height="6" as="geometry" />
        </mxCell>
        <mxCell id="tF5wVJskWd052KUqNV0I-25" value="\(q_1(t_2)\)" style="text;html=1;align=center;verticalAlign=middle;resizable=0;points=[];autosize=1;strokeColor=none;fillColor=none;" parent="1" vertex="1">
          <mxGeometry x="297" y="287" width="77" height="26" as="geometry" />
        </mxCell>
        <mxCell id="tF5wVJskWd052KUqNV0I-26" value="\(q_1(t_1)\)" style="text;html=1;align=center;verticalAlign=middle;resizable=0;points=[];autosize=1;strokeColor=none;fillColor=none;" parent="1" vertex="1">
          <mxGeometry x="253" y="287" width="77" height="26" as="geometry" />
        </mxCell>
        <mxCell id="joFRtOiVaALMIDKCe-_c-1" value="" style="ellipse;whiteSpace=wrap;html=1;aspect=fixed;strokeColor=none;fillColor=#3399FF;" parent="1" vertex="1">
          <mxGeometry x="249" y="243" width="6" height="6" as="geometry" />
        </mxCell>
        <mxCell id="joFRtOiVaALMIDKCe-_c-3" value="" style="ellipse;whiteSpace=wrap;html=1;aspect=fixed;strokeColor=none;fillColor=#3399FF;" parent="1" vertex="1">
          <mxGeometry x="249" y="203" width="6" height="6" as="geometry" />
        </mxCell>
      </root>
    </mxGraphModel>
  </diagram>
</mxfile>
